#Comment line ignore any data following # character 
#Hierarchical Translation and Rotation (.htr) file 
[Header]	
#Header keywords are followed by a single value 
FileType HTR		#Single word string
DataType HTRS		#Translation followed by rotation and scale data
FileVersion 1		#integer
NumSegments 84		#integer
NumFrames 2		#integer
DataFrameRate 30		#integer, data frame rate in this file
EulerRotationOrder ZYX
CalibrationUnits mm
RotationUnits Degrees
GlobalAxisofGravity Y
BoneLengthAxis Y
ScaleFactor 1.00
[SegmentNames&Hierarchy]
#CHILD	PARENT
MASTER GLOBAL
root MASTER
chest root
L_mid_tent01 root
R_mid_tent01 root
spine01 root
Bip01_Neck chest
L_humerus chest
R_humerus chest
weapon_bone chest
Bip01_Head Bip01_Neck
eye_left_bone Bip01_Head
eye_right_bone Bip01_Head
L_forearm L_humerus
L_front_hand L_forearm
L_weapon_bone L_forearm
L_front_hand01_01 L_front_hand
L_front_hand02_01 L_front_hand
L_front_hand03_01 L_front_hand
L_front_hand01_02 L_front_hand01_01
L_front_hand02_02 L_front_hand02_01
L_front_hand03_02 L_front_hand03_01
R_forearm R_humerus
R_front_hand R_forearm
R_weapon_bone R_forearm
R_front_hand01_01 R_front_hand
R_front_hand02_01 R_front_hand
R_front_hand03_01 R_front_hand
R_front_hand01_02 R_front_hand01_01
R_front_hand02_02 R_front_hand02_01
R_front_hand03_02 R_front_hand03_01
null_rope01_connect L_mid_tent01
Rope1_Seg01 null_rope01_connect
Rope1_Seg02 Rope1_Seg01
Rope1_Seg03 Rope1_Seg02
Rope1_Seg04 Rope1_Seg03
Rope1_Seg05 Rope1_Seg04
Rope1_Seg06 Rope1_Seg05
Rope1_Seg07 Rope1_Seg06
Rope1_Seg09 Rope1_Seg07
L_mid_hand01 Rope1_Seg09
L_mid_hand02 Rope1_Seg09
L_mid_hand03 Rope1_Seg09
null_rope02_connect R_mid_tent01
Rope2_Seg01 null_rope02_connect
Rope2_Seg02 Rope2_Seg01
Rope2_Seg03 Rope2_Seg02
Rope2_Seg04 Rope2_Seg03
Rope2_Seg05 Rope2_Seg04
Rope2_Seg06 Rope2_Seg05
Rope2_Seg07 Rope2_Seg06
Rope2_Seg09 Rope2_Seg07
R_mid_hand01 Rope2_Seg09
R_mid_hand02 Rope2_Seg09
R_mid_hand03 Rope2_Seg09
spine02 spine01
spine03 spine02
pelvis spine03
null_rope03_connect pelvis
null_rope04_connect pelvis
Rope3_Seg01 null_rope03_connect
Rope3_Seg02 Rope3_Seg01
Rope3_Seg03 Rope3_Seg02
Rope3_Seg04 Rope3_Seg03
Rope3_Seg05 Rope3_Seg04
Rope3_Seg06 Rope3_Seg05
Rope3_Seg07 Rope3_Seg06
Rope3_Seg08 Rope3_Seg07
Rope3_Seg09 Rope3_Seg08
R_rear_hand01 Rope3_Seg09
R_rear_hand02 Rope3_Seg09
R_rear_hand03 Rope3_Seg09
Rope4_Seg01 null_rope04_connect
Rope4_Seg02 Rope4_Seg01
Rope4_Seg03 Rope4_Seg02
Rope4_Seg04 Rope4_Seg03
Rope4_Seg05 Rope4_Seg04
Rope4_Seg06 Rope4_Seg05
Rope4_Seg07 Rope4_Seg06
Rope4_Seg08 Rope4_Seg07
Rope4_Seg09 Rope4_Seg08
L_rear_hand01 Rope4_Seg09
L_rear_hand02 Rope4_Seg09
L_rear_hand03 Rope4_Seg09
[BasePosition]
#SegmentName Tx, Ty, Tz, Rx, Ry, Rz, BoneLength
MASTER 0.000000 0.000000 0.000000 -90.000000 0.000000 0.000000 10.000000 
root 0.000000 0.000000 0.000000 0.000000 0.000000 0.000000 10.000000 
chest 0.000000 0.000000 0.000000 0.000000 0.000000 0.000000 10.000000 
L_mid_tent01 0.000000 0.000000 0.000000 0.000000 0.000000 0.000000 10.000000 
R_mid_tent01 0.000000 0.000000 0.000000 0.000000 0.000000 0.000000 10.000000 
spine01 0.000000 0.000000 0.000000 0.000000 0.000000 0.000000 10.000000 
Bip01_Neck 0.000000 0.000000 0.000000 0.000000 0.000000 0.000000 10.000000 
L_humerus 0.000000 0.000000 0.000000 0.000000 0.000000 0.000000 10.000000 
R_humerus 0.000000 0.000000 0.000000 0.000000 0.000000 0.000000 10.000000 
weapon_bone 0.000000 0.000000 0.000000 0.000000 0.000000 0.000000 10.000000 
Bip01_Head 0.000000 0.000000 0.000000 0.000000 0.000000 0.000000 10.000000 
eye_left_bone 0.000000 0.000000 0.000000 0.000000 0.000000 0.000000 10.000000 
eye_right_bone 0.000000 0.000000 0.000000 0.000000 0.000000 0.000000 10.000000 
L_forearm 0.000000 0.000000 0.000000 0.000000 0.000000 0.000000 10.000000 
L_front_hand 0.000000 0.000000 0.000000 0.000000 0.000000 0.000000 10.000000 
L_weapon_bone 0.000000 0.000000 0.000000 0.000000 0.000000 0.000000 10.000000 
L_front_hand01_01 0.000000 0.000000 0.000000 0.000000 0.000000 0.000000 10.000000 
L_front_hand02_01 0.000000 0.000000 0.000000 0.000000 0.000000 0.000000 10.000000 
L_front_hand03_01 0.000000 0.000000 0.000000 0.000000 0.000000 0.000000 10.000000 
L_front_hand01_02 0.000000 0.000000 0.000000 0.000000 0.000000 0.000000 10.000000 
L_front_hand02_02 0.000000 0.000000 0.000000 0.000000 0.000000 0.000000 10.000000 
L_front_hand03_02 0.000000 0.000000 0.000000 0.000000 0.000000 0.000000 10.000000 
R_forearm 0.000000 0.000000 0.000000 0.000000 0.000000 0.000000 10.000000 
R_front_hand 0.000000 0.000000 0.000000 0.000000 0.000000 0.000000 10.000000 
R_weapon_bone 0.000000 0.000000 0.000000 0.000000 0.000000 0.000000 10.000000 
R_front_hand01_01 0.000000 0.000000 0.000000 0.000000 0.000000 0.000000 10.000000 
R_front_hand02_01 0.000000 0.000000 0.000000 0.000000 0.000000 0.000000 10.000000 
R_front_hand03_01 0.000000 0.000000 0.000000 0.000000 0.000000 0.000000 10.000000 
R_front_hand01_02 0.000000 0.000000 0.000000 0.000000 0.000000 0.000000 10.000000 
R_front_hand02_02 0.000000 0.000000 0.000000 0.000000 0.000000 0.000000 10.000000 
R_front_hand03_02 0.000000 0.000000 0.000000 0.000000 0.000000 0.000000 10.000000 
null_rope01_connect 0.000000 0.000000 0.000000 0.000000 0.000000 0.000000 10.000000 
Rope1_Seg01 0.000000 0.000000 0.000000 0.000000 0.000000 0.000000 10.000000 
Rope1_Seg02 0.000000 0.000000 0.000000 0.000000 0.000000 0.000000 10.000000 
Rope1_Seg03 0.000000 0.000000 0.000000 0.000000 0.000000 0.000000 10.000000 
Rope1_Seg04 0.000000 0.000000 0.000000 0.000000 0.000000 0.000000 10.000000 
Rope1_Seg05 0.000000 0.000000 0.000000 0.000000 0.000000 0.000000 10.000000 
Rope1_Seg06 0.000000 0.000000 0.000000 0.000000 0.000000 0.000000 10.000000 
Rope1_Seg07 0.000000 0.000000 0.000000 0.000000 0.000000 0.000000 10.000000 
Rope1_Seg09 0.000000 0.000000 0.000000 0.000000 0.000000 0.000000 10.000000 
L_mid_hand01 0.000000 0.000000 0.000000 0.000000 0.000000 0.000000 10.000000 
L_mid_hand02 0.000000 0.000000 0.000000 0.000000 0.000000 0.000000 10.000000 
L_mid_hand03 0.000000 0.000000 0.000000 0.000000 0.000000 0.000000 10.000000 
null_rope02_connect 0.000000 0.000000 0.000000 0.000000 0.000000 0.000000 10.000000 
Rope2_Seg01 0.000000 0.000000 0.000000 0.000000 0.000000 0.000000 10.000000 
Rope2_Seg02 0.000000 0.000000 0.000000 0.000000 0.000000 0.000000 10.000000 
Rope2_Seg03 0.000000 0.000000 0.000000 0.000000 0.000000 0.000000 10.000000 
Rope2_Seg04 0.000000 0.000000 0.000000 0.000000 0.000000 0.000000 10.000000 
Rope2_Seg05 0.000000 0.000000 0.000000 0.000000 0.000000 0.000000 10.000000 
Rope2_Seg06 0.000000 0.000000 0.000000 0.000000 0.000000 0.000000 10.000000 
Rope2_Seg07 0.000000 0.000000 0.000000 0.000000 0.000000 0.000000 10.000000 
Rope2_Seg09 0.000000 0.000000 0.000000 0.000000 0.000000 0.000000 10.000000 
R_mid_hand01 0.000000 0.000000 0.000000 0.000000 0.000000 0.000000 10.000000 
R_mid_hand02 0.000000 0.000000 0.000000 0.000000 0.000000 0.000000 10.000000 
R_mid_hand03 0.000000 0.000000 0.000000 0.000000 0.000000 0.000000 10.000000 
spine02 0.000000 0.000000 0.000000 0.000000 0.000000 0.000000 10.000000 
spine03 0.000000 0.000000 0.000000 0.000000 0.000000 0.000000 10.000000 
pelvis 0.000000 0.000000 0.000000 0.000000 0.000000 0.000000 10.000000 
null_rope03_connect 0.000000 0.000000 0.000000 0.000000 0.000000 0.000000 10.000000 
null_rope04_connect 0.000000 0.000000 0.000000 0.000000 0.000000 0.000000 10.000000 
Rope3_Seg01 0.000000 0.000000 0.000000 0.000000 0.000000 0.000000 10.000000 
Rope3_Seg02 0.000000 0.000000 0.000000 0.000000 0.000000 0.000000 10.000000 
Rope3_Seg03 0.000000 0.000000 0.000000 0.000000 0.000000 0.000000 10.000000 
Rope3_Seg04 0.000000 0.000000 0.000000 0.000000 0.000000 0.000000 10.000000 
Rope3_Seg05 0.000000 0.000000 0.000000 0.000000 0.000000 0.000000 10.000000 
Rope3_Seg06 0.000000 0.000000 0.000000 0.000000 0.000000 0.000000 10.000000 
Rope3_Seg07 0.000000 0.000000 0.000000 0.000000 0.000000 0.000000 10.000000 
Rope3_Seg08 0.000000 0.000000 0.000000 0.000000 0.000000 0.000000 10.000000 
Rope3_Seg09 0.000000 0.000000 0.000000 0.000000 0.000000 0.000000 10.000000 
R_rear_hand01 0.000000 0.000000 0.000000 0.000000 0.000000 0.000000 10.000000 
R_rear_hand02 0.000000 0.000000 0.000000 0.000000 0.000000 0.000000 10.000000 
R_rear_hand03 0.000000 0.000000 0.000000 0.000000 0.000000 0.000000 10.000000 
Rope4_Seg01 0.000000 0.000000 0.000000 0.000000 0.000000 0.000000 10.000000 
Rope4_Seg02 0.000000 0.000000 0.000000 0.000000 0.000000 0.000000 10.000000 
Rope4_Seg03 0.000000 0.000000 0.000000 0.000000 0.000000 0.000000 10.000000 
Rope4_Seg04 0.000000 0.000000 0.000000 0.000000 0.000000 0.000000 10.000000 
Rope4_Seg05 0.000000 0.000000 0.000000 0.000000 0.000000 0.000000 10.000000 
Rope4_Seg06 0.000000 0.000000 0.000000 0.000000 0.000000 0.000000 10.000000 
Rope4_Seg07 0.000000 0.000000 0.000000 0.000000 0.000000 0.000000 10.000000 
Rope4_Seg08 0.000000 0.000000 0.000000 0.000000 0.000000 0.000000 10.000000 
Rope4_Seg09 0.000000 0.000000 0.000000 0.000000 0.000000 0.000000 10.000000 
L_rear_hand01 0.000000 0.000000 0.000000 0.000000 0.000000 0.000000 10.000000 
L_rear_hand02 0.000000 0.000000 0.000000 0.000000 0.000000 0.000000 10.000000 
L_rear_hand03 0.000000 0.000000 0.000000 0.000000 0.000000 0.000000 10.000000 
#Beginning of Data. Separated by tabs
#Fr	Tx	Ty	Tz	Rx	Ry	Rz	SF
[MASTER]
27 312.030334 6422.597656 2907.122314 0.001660 0.001660 0.001660 7056.804199
28 167.868484 6723.252930 2880.221680 0.001660 0.001660 0.001660 7316.145508
[root]
27 650.606628 -117.962646 550.116211 -30.712154 -6.095561 -60.866451 860.134888
28 682.897583 -117.646477 554.344788 -32.947853 -7.826432 -58.416954 887.405151
[chest]
27 -84.512650 -34.090519 0.000000 -8.737090 1.788963 174.581604 91.129311
28 -84.512650 -34.090519 0.000000 -6.511502 1.404881 174.828918 91.129311
[L_mid_tent01]
27 27.298895 22.179258 -249.918686 -14.620188 12.687737 51.650249 252.381653
28 27.298887 22.179258 -249.918686 -15.347017 12.060427 49.326988 252.381653
[R_mid_tent01]
27 23.228794 24.509907 226.238495 144.324112 -56.057228 54.858833 228.744751
28 23.228794 24.509907 226.238495 143.974075 -57.257153 52.646584 228.744751
[spine01]
27 -0.361383 -0.195265 0.000000 0.001725 0.001592 4.572684 0.410763
28 -0.361383 -0.195265 0.000000 0.001718 0.001599 4.097557 0.410763
[Bip01_Neck]
27 165.484543 71.581718 0.000119 176.643677 -1.657967 43.431911 180.302734
28 165.484543 71.581718 0.000119 176.643677 -1.657967 43.431911 180.302734
[L_humerus]
27 -13.983130 -135.272980 -120.471481 171.672653 17.958019 -91.789780 181.680161
28 -13.983130 -135.272980 -120.471481 171.909637 13.394053 -91.101311 181.680161
[R_humerus]
27 -13.983309 -135.273102 125.287651 -176.788391 -9.024665 -86.259552 184.909012
28 -13.983309 -135.273102 125.287651 -176.892075 -5.924410 -85.996117 184.909012
[weapon_bone]
27 235.964890 -300.705902 0.000000 0.000000 -89.951546 -128.212341 382.234833
28 235.964890 -300.705902 0.000000 0.000000 -89.951546 -128.212341 382.234833
[Bip01_Head]
27 213.358521 185.953781 8.705234 11.122338 -2.229910 -48.776432 283.154480
28 213.362045 185.943939 8.832304 10.917776 -1.990741 -48.635136 283.154572
[eye_left_bone]
27 -24.626970 125.451866 -64.772606 0.000000 -90.000000 -99.840431 143.318359
28 -24.626970 125.451866 -64.772606 0.000000 -90.000000 -99.840431 143.318359
[eye_right_bone]
27 -24.626970 125.451866 64.327362 0.000000 -89.965736 80.156380 143.117676
28 -24.626970 125.451866 64.327362 0.000000 -89.965736 80.156380 143.117676
[L_forearm]
27 322.776093 0.000000 -0.000119 0.000433 -0.002307 -111.277138 322.776093
28 322.776093 0.000000 -0.000119 0.000433 -0.002307 -111.269646 322.776093
[L_front_hand]
27 241.149185 -0.042021 -3.300071 -178.667953 -1.835447 -27.422344 241.171753
28 241.149185 -0.042021 -3.300071 -178.667953 -1.835447 -27.422350 241.171753
[L_weapon_bone]
27 156.183838 0.000000 0.000000 0.000014 0.000007 0.000001 156.183838
28 156.183838 0.000000 0.000000 0.000014 0.000007 0.000001 156.183838
[L_front_hand01_01]
27 86.095154 20.947098 -0.655860 -0.366594 -0.477154 75.385582 88.609184
28 86.095154 20.947098 -0.655860 -0.366594 -0.477154 75.385574 88.609184
[L_front_hand02_01]
27 86.935165 -11.437475 24.513514 154.399796 -59.883820 -61.369579 91.046425
28 86.935165 -11.437475 24.513514 154.399796 -59.883835 -61.369587 91.046425
[L_front_hand03_01]
27 86.637497 -14.123976 -20.424902 -153.913864 58.118130 -62.702885 90.126129
28 86.637497 -14.123976 -20.424902 -153.913849 58.118122 -62.702866 90.126129
[L_front_hand01_02]
27 71.020905 -0.000179 0.000030 0.000334 -0.002323 -106.368011 71.020905
28 71.020905 -0.000179 0.000030 0.000334 -0.002323 -106.368706 71.020905
[L_front_hand02_02]
27 71.020927 -0.000119 0.000060 0.000334 -0.002323 -106.368011 71.020927
28 71.020927 -0.000119 0.000060 0.000334 -0.002323 -106.368706 71.020927
[L_front_hand03_02]
27 71.020905 -0.000060 0.000060 0.000334 -0.002323 -106.368011 71.020905
28 71.020905 -0.000060 0.000060 0.000334 -0.002323 -106.368706 71.020905
[R_forearm]
27 322.776428 -0.000060 0.000030 0.201012 0.068449 -109.933922 322.776428
28 322.776428 -0.000060 0.000030 0.201019 0.068428 -109.921844 322.776428
[R_front_hand]
27 238.847015 -0.006795 2.210259 -2.635298 -10.645461 -26.312506 238.857239
28 238.847015 -0.006795 2.210259 -2.635298 -10.645461 -26.312506 238.857239
[R_weapon_bone]
27 155.664093 0.002503 -0.000030 0.003487 0.001180 -90.988930 155.664078
28 155.664093 0.002503 -0.000030 0.003487 0.001180 -90.988930 155.664078
[R_front_hand01_01]
27 87.624611 14.231146 22.918642 -154.633514 -59.950626 61.746063 91.683487
28 87.624611 14.231146 22.918642 -154.633484 -59.950619 61.746037 91.683487
[R_front_hand02_01]
27 89.356956 14.367283 -19.491137 154.602676 58.302864 63.744400 92.579636
28 89.356956 14.367283 -19.491137 154.602661 58.302849 63.744389 92.579636
[R_front_hand03_01]
27 87.286232 -22.307278 -0.143439 0.162155 -0.423168 -75.767921 90.091743
28 87.286232 -22.307278 -0.143439 0.162155 -0.423168 -75.767921 90.091743
[R_front_hand01_02]
27 71.020905 0.000060 0.000119 0.002323 -0.000334 106.381706 71.020905
28 71.020905 0.000060 0.000119 0.002323 -0.000334 106.381714 71.020905
[R_front_hand02_02]
27 71.020844 -0.000030 -0.000119 0.002323 -0.000334 106.381706 71.020836
28 71.020844 -0.000030 -0.000119 0.002323 -0.000334 106.381714 71.020836
[R_front_hand03_02]
27 71.020905 0.000000 0.000030 0.002323 -0.000334 106.381706 71.020905
28 71.020905 0.000000 0.000030 0.002323 -0.000334 106.381714 71.020905
[null_rope01_connect]
27 328.732483 0.000000 -0.000238 37.467575 -36.763718 -3.578737 328.732483
28 328.732483 0.000000 -0.000238 42.097340 -36.136765 -4.297886 328.732483
[Rope1_Seg01]
27 0.000038 -0.000477 0.000000 -14.129139 49.808865 165.842300 0.000479
28 0.000038 -0.000494 0.000000 -10.625987 49.274734 170.624908 0.000496
[Rope1_Seg02]
27 139.999863 -0.000179 0.000000 -1.911448 11.214903 -0.807297 139.999863
28 139.999863 -0.000179 0.000000 -1.052154 8.787094 -1.383810 139.999863
[Rope1_Seg03]
27 139.999924 0.000060 -0.000060 -7.698789 21.867708 -0.563934 139.999924
28 139.999924 0.000060 -0.000060 -4.744333 17.854532 -2.377480 139.999924
[Rope1_Seg04]
27 139.999924 -0.000060 -0.000119 -23.310663 32.963531 3.929857 139.999924
28 139.999924 -0.000060 -0.000119 -18.130928 30.494097 0.027294 139.999924
[Rope1_Seg05]
27 139.999832 0.000119 -0.000060 -32.756325 34.132019 19.082354 139.999832
28 139.999832 0.000119 -0.000060 -45.125092 41.380642 7.047303 139.999832
[Rope1_Seg06]
27 139.999954 0.000119 -0.000060 -10.209362 6.687435 14.096629 139.999954
28 139.999954 0.000119 -0.000060 -20.750572 13.718054 18.732725 139.999954
[Rope1_Seg07]
27 139.999985 0.000060 0.000000 -3.278329 1.547005 6.205070 139.999985
28 139.999985 0.000060 0.000000 -5.123480 1.684490 7.983542 139.999985
[Rope1_Seg09]
27 121.602913 0.000119 -0.000089 -89.793175 -1.359789 0.847147 121.602913
28 121.602913 0.000119 -0.000089 -89.793175 -1.359789 0.847147 121.602913
[L_mid_hand01]
27 103.859421 1.038730 8.195221 130.544373 -67.584534 -38.866940 104.187431
28 103.859421 1.038730 8.195221 130.544373 -67.584534 -38.866943 104.187431
[L_mid_hand02]
27 105.572853 -4.139662 -10.864139 -168.923172 43.409321 -73.498909 106.211075
28 105.572853 -4.139662 -10.864139 -168.923172 43.409309 -73.498894 106.211075
[L_mid_hand03]
27 104.641464 17.579376 -3.913581 -6.012627 17.808178 74.893677 106.179977
28 104.641464 17.579376 -3.913581 -6.012628 17.808176 74.893669 106.179977
[null_rope02_connect]
27 328.732849 0.000179 -0.000119 -116.297249 -23.821222 -22.735199 328.732849
28 328.732849 0.000179 -0.000119 -112.189102 -24.759579 -23.352173 328.732849
[Rope2_Seg01]
27 0.000081 -0.000381 0.000000 20.132395 -46.250172 141.359467 0.000390
28 0.000081 -0.000401 0.000000 38.404167 -44.740479 123.899948 0.000409
[Rope2_Seg02]
27 139.999741 -0.000060 -0.000119 6.411864 -8.171330 -11.014589 139.999756
28 139.999741 -0.000060 -0.000119 6.896710 -9.183858 -11.519770 139.999756
[Rope2_Seg03]
27 140.000107 0.000030 0.000000 9.791032 -18.450729 -18.849409 140.000107
28 140.000107 0.000030 0.000000 8.805825 -17.371902 -17.217108 140.000107
[Rope2_Seg04]
27 139.999802 0.000000 -0.000060 4.765366 -23.817785 -17.935970 139.999802
28 139.999802 0.000000 -0.000060 4.004693 -21.082678 -14.888726 139.999802
[Rope2_Seg05]
27 139.999985 -0.000060 0.000119 -0.522690 -0.360798 -19.824072 139.999985
28 139.999985 -0.000060 0.000119 -0.411961 -7.644583 -12.342054 139.999985
[Rope2_Seg06]
27 139.999893 -0.000030 -0.000119 3.409811 4.402828 -29.448221 139.999893
28 139.999893 -0.000030 -0.000119 -0.110449 -4.694127 -25.436563 139.999893
[Rope2_Seg07]
27 139.999893 0.000060 -0.000060 7.173143 -1.140293 -19.288542 139.999893
28 139.999893 0.000060 -0.000060 2.650867 -7.801490 -25.321526 139.999893
[Rope2_Seg09]
27 121.338966 0.000089 -0.000060 33.793236 -1.359788 -0.847141 121.338966
28 121.338966 0.000089 -0.000060 33.793236 -1.359788 -0.847141 121.338966
[R_mid_hand01]
27 104.680779 11.144459 -10.335981 -16.212063 45.237247 70.462852 105.778534
28 104.680779 11.144459 -10.335981 -16.212063 45.237240 70.462852 105.778534
[R_mid_hand02]
27 104.070427 2.443552 8.231699 49.067368 -67.749771 39.286453 104.424065
28 104.070427 2.443552 8.231699 49.067368 -67.749771 39.286453 104.424065
[R_mid_hand03]
27 106.028137 -11.221827 -5.996406 -177.101105 15.551026 -76.585571 106.788818
28 106.028137 -11.221827 -5.996406 -177.101105 15.551026 -76.585571 106.788818
[spine02]
27 129.756927 0.001550 0.000119 0.546394 -4.022726 -15.603081 129.756927
28 129.756927 0.001550 0.000119 0.543997 -4.023052 -15.581350 129.756927
[spine03]
27 78.613777 0.081691 -4.898995 2.007710 3.774349 18.145184 78.766319
28 78.613770 0.081693 -4.898995 2.007462 3.774481 18.137657 78.766312
[pelvis]
27 169.435242 0.051022 0.000000 7.177630 -0.682604 -2.920599 169.435257
28 169.435242 0.051022 0.000000 6.969110 -0.613583 -3.816989 169.435257
[null_rope03_connect]
27 -1.257226 -2.466202 137.391083 16.526670 -16.297634 55.391102 137.418976
28 -1.257226 -2.466202 137.391083 20.087276 -16.725767 54.179447 137.418976
[null_rope04_connect]
27 -1.259640 -2.480268 -137.844437 16.526670 -16.297634 55.391102 137.872513
28 -1.259640 -2.480268 -137.844437 20.087276 -16.725767 54.179447 137.872513
[Rope3_Seg01]
27 0.000000 0.000000 0.000000 53.423836 -41.390350 -123.573792 0.000000
28 0.000000 0.000000 0.000000 62.368206 -36.139153 -137.926910 0.000000
[Rope3_Seg02]
27 139.999924 -0.000119 0.000060 5.910163 1.768345 17.880707 139.999924
28 139.999924 -0.000119 0.000060 12.381050 -2.780135 18.650896 139.999924
[Rope3_Seg03]
27 139.999924 -0.000119 0.000119 3.716101 5.993272 25.006414 139.999924
28 139.999924 -0.000119 0.000119 6.113058 6.136749 27.010942 139.999924
[Rope3_Seg04]
27 139.999924 0.000119 0.000000 -0.117592 3.983074 20.354515 139.999924
28 139.999924 0.000119 0.000000 0.929676 -0.553289 26.028265 139.999924
[Rope3_Seg05]
27 139.999924 -0.000238 0.000060 -6.550426 -1.970843 21.402416 139.999924
28 139.999924 -0.000238 0.000060 -12.799157 -14.489018 32.579079 139.999924
[Rope3_Seg06]
27 139.999893 -0.000119 -0.000060 -11.071021 -2.744102 18.742569 139.999893
28 139.999893 -0.000119 -0.000060 -8.202040 -8.001773 14.537981 139.999893
[Rope3_Seg07]
27 139.999771 0.000060 -0.000119 -9.026010 -3.203588 9.650131 139.999771
28 139.999771 0.000060 -0.000119 -4.484139 -4.784640 6.696913 139.999771
[Rope3_Seg08]
27 139.999985 -0.000060 0.000000 -2.056447 -1.083552 2.108735 139.999985
28 139.999985 -0.000060 0.000000 -1.615856 -2.163487 2.594966 139.999985
[Rope3_Seg09]
27 90.185997 -0.000179 -0.000060 89.793228 -1.359877 -0.847183 90.185997
28 90.185997 -0.000179 -0.000060 89.793228 -1.359877 -0.847183 90.185997
[R_rear_hand01]
27 103.366196 -6.073594 -10.757982 -177.714203 24.565960 -73.910950 104.101845
28 103.366196 -6.073594 -10.757982 -177.714203 24.565960 -73.910950 104.101845
[R_rear_hand02]
27 100.509819 12.039542 -7.992327 -12.874829 36.868488 72.167213 101.543350
28 100.509819 12.039542 -7.992327 -12.874831 36.868481 72.167213 101.543350
[R_rear_hand03]
27 101.539970 5.215704 5.435467 71.484581 -71.816628 21.513813 101.819031
28 101.539970 5.215704 5.435467 71.484581 -71.816628 21.513813 101.819031
[Rope4_Seg01]
27 0.000002 -0.000477 -0.000153 -150.240982 50.975555 -154.738892 0.000501
28 0.000002 -0.000494 -0.000153 -140.870316 56.588440 -142.133652 0.000517
[Rope4_Seg02]
27 139.999985 0.000060 0.000119 -3.884731 -0.889722 3.937112 139.999985
28 139.999985 0.000060 0.000119 -4.388624 0.509137 6.766745 139.999985
[Rope4_Seg03]
27 139.999924 0.000000 -0.000238 -6.516440 -1.842675 6.203294 139.999924
28 139.999924 0.000000 -0.000238 -8.528480 -0.017481 10.935226 139.999924
[Rope4_Seg04]
27 139.999985 0.000000 0.000119 -13.471057 -4.352508 12.167789 139.999985
28 139.999985 0.000000 0.000119 -19.328922 -1.659805 20.014816 139.999985
[Rope4_Seg05]
27 139.999802 -0.000060 -0.000119 -21.748390 -15.362825 19.609697 139.999802
28 139.999802 -0.000060 -0.000119 -26.453358 -12.196167 24.245358 139.999802
[Rope4_Seg06]
27 139.999924 0.000000 0.000060 -6.817257 -15.119578 6.141905 139.999924
28 139.999924 0.000000 0.000060 -3.203673 -10.052451 0.988787 139.999924
[Rope4_Seg07]
27 139.999802 0.000000 0.000000 -2.661416 -10.143101 3.640410 139.999802
28 139.999802 0.000000 0.000000 -1.011853 -5.122296 0.190508 139.999802
[Rope4_Seg08]
27 139.999924 0.000000 0.000119 -2.287353 -4.936222 1.531219 139.999924
28 139.999924 0.000000 0.000119 -2.324795 -3.219060 0.735067 139.999924
[Rope4_Seg09]
27 90.185791 0.000060 0.000060 -135.617828 2.228885 0.850567 90.185791
28 90.185791 0.000060 0.000060 -135.617828 2.228885 0.850567 90.185791
[L_rear_hand01]
27 101.696655 -8.392275 -7.654577 -12.874834 -36.868492 107.832779 102.329041
28 101.696655 -8.392275 -7.654577 -12.874831 -36.868492 107.832764 102.329041
[L_rear_hand02]
27 102.726799 -1.568258 5.773216 71.484573 71.816628 158.486160 102.900848
28 102.726799 -1.568258 5.773216 71.484596 71.816643 158.486160 102.900848
[L_rear_hand03]
27 104.552910 9.721220 -10.420293 -177.714203 -24.565960 -106.089035 105.519653
28 104.552910 9.721220 -10.420293 -177.714203 -24.565966 -106.089035 105.519653
